<svg xmlns="http://www.w3.org/2000/svg" xmlns:xlink="http://www.w3.org/1999/xlink" width="851" height="209"><g transform="translate(-131 -199)"><path d="M0 0h1360v1760H0z" fill="#fff"/><path d="M896 220c46.4 0 84 40.3 84 90s-37.6 90-84 90H224c-46.4 0-84-40.3-84-90s37.6-90 84-90z" stroke="#000" stroke-width="2" fill="#fff"/><path d="M896 400c-46.4 0-84-40.3-84-90s37.6-90 84-90" stroke="#000" stroke-width="2" fill="none"/><use xlink:href="#a" transform="matrix(1,0,0,1,145,225) translate(331 90.4)"/><path d="M220 275.5h120v80H220z" stroke="#000" stroke-width="2" fill="#fff"/><use xlink:href="#b" transform="matrix(1,0,0,1,225,280.5) translate(11.124999999999993 38.6)"/><path d="M365 275.5h120v80H365z" stroke="#000" stroke-width="2" fill="#fff"/><use xlink:href="#b" transform="matrix(1,0,0,1,370,280.5) translate(11.124999999999993 38.6)"/><path d="M510 275.5h120v80H510z" stroke="#000" stroke-width="2" fill="#fff"/><use xlink:href="#b" transform="matrix(1,0,0,1,515,280.5) translate(11.124999999999993 38.6)"/><path d="M656 275.5h120v80H656z" stroke="#000" stroke-width="2" fill="#fff"/><use xlink:href="#c" transform="matrix(1,0,0,1,661,280.5) translate(22.099999999999994 38.6)"/><path d="M340 315.5h25" stroke="#000" stroke-width="2" fill="none"/><path d="M365 315.5l-14.27 4.64v-9.28z"/><path d="M365 314.45v2.1l-15.27 4.96v-12zm-13.27 4.3l10.03-3.25-10.03-3.26z"/><path d="M485 315.5h25" stroke="#000" stroke-width="2" fill="none"/><path d="M510 315.5l-14.27 4.64v-9.28z"/><path d="M510 314.45v2.1l-15.27 4.96v-12zm-13.27 4.3l10.03-3.25-10.03-3.26z"/><path d="M630 315.5h25" stroke="#000" stroke-width="2" fill="none"/><path d="M655 315.5l-14.27 4.64v-9.28z"/><path d="M656 314.77v1.46l-16.27 5.28v-12zm-14.27 4l10.03-3.27-10.03-3.26z"/><path d="M160 220h240v40H160z" fill="none"/><use xlink:href="#d" transform="matrix(1,0,0,1,165,225) translate(38.69999999999999 18.6)"/><use xlink:href="#e" transform="matrix(1,0,0,1,165,225) translate(129.45 18.6)"/><defs><path d="M59-47c-2 24 18 29 38 22v24C64 9 27 4 27-40v-127H5v-23h24l9-43h21v43h35v23H59v120" id="f"/><path d="M114-163C36-179 61-72 57 0H25l-1-190h30c1 12-1 29 2 39 6-27 23-49 58-41v29" id="g"/><path d="M141-36C126-15 110 5 73 4 37 3 15-17 15-53c-1-64 63-63 125-63 3-35-9-54-41-54-24 1-41 7-42 31l-33-3c5-37 33-52 76-52 45 0 72 20 72 64v82c-1 20 7 32 28 27v20c-31 9-61-2-59-35zM48-53c0 20 12 33 32 33 41-3 63-29 60-74-43 2-92-5-92 41" id="h"/><path d="M117-194c89-4 53 116 60 194h-32v-121c0-31-8-49-39-48C34-167 62-67 57 0H25l-1-190h30c1 10-1 24 2 32 11-22 29-35 61-36" id="i"/><path d="M135-143c-3-34-86-38-87 0 15 53 115 12 119 90S17 21 10-45l28-5c4 36 97 45 98 0-10-56-113-15-118-90-4-57 82-63 122-42 12 7 21 19 24 35" id="j"/><path d="M101-234c-31-9-42 10-38 44h38v23H63V0H32v-167H5v-23h27c-7-52 17-82 69-68v24" id="k"/><path d="M100-194c62-1 85 37 85 99 1 63-27 99-86 99S16-35 15-95c0-66 28-99 85-99zM99-20c44 1 53-31 53-75 0-43-8-75-51-75s-53 32-53 75 10 74 51 75" id="l"/><path d="M210-169c-67 3-38 105-44 169h-31v-121c0-29-5-50-35-48C34-165 62-65 56 0H25l-1-190h30c1 10-1 24 2 32 10-44 99-50 107 0 11-21 27-35 58-36 85-2 47 119 55 194h-31v-121c0-29-5-49-35-48" id="m"/><path d="M87 75C49 33 22-17 22-94c0-76 28-126 65-167h31c-38 41-64 92-64 168S80 34 118 75H87" id="n"/><path d="M33-261c38 41 65 92 65 168S71 34 33 75H2C39 34 66-17 66-93S39-220 2-261h31" id="o"/><g id="b"><use transform="matrix(0.05,0,0,0.05,0,0)" xlink:href="#f"/><use transform="matrix(0.05,0,0,0.05,5,0)" xlink:href="#g"/><use transform="matrix(0.05,0,0,0.05,10.95,0)" xlink:href="#h"/><use transform="matrix(0.05,0,0,0.05,20.95,0)" xlink:href="#i"/><use transform="matrix(0.05,0,0,0.05,30.950000000000003,0)" xlink:href="#j"/><use transform="matrix(0.05,0,0,0.05,39.95,0)" xlink:href="#k"/><use transform="matrix(0.05,0,0,0.05,44.95,0)" xlink:href="#l"/><use transform="matrix(0.05,0,0,0.05,54.95,0)" xlink:href="#g"/><use transform="matrix(0.05,0,0,0.05,60.900000000000006,0)" xlink:href="#m"/><use transform="matrix(0.05,0,0,0.05,75.85000000000001,0)" xlink:href="#n"/><use transform="matrix(0.05,0,0,0.05,81.80000000000001,0)" xlink:href="#o"/></g><path d="M115-194c55 1 70 41 70 98S169 2 115 4C84 4 66-9 55-30l1 105H24l-1-265h31l2 30c10-21 28-34 59-34zm-8 174c40 0 45-34 45-75s-6-73-45-74c-42 0-51 32-51 76 0 43 10 73 51 73" id="p"/><path d="M100-194c63 0 86 42 84 106H49c0 40 14 67 53 68 26 1 43-12 49-29l28 8c-11 28-37 45-77 45C44 4 14-33 15-96c1-61 26-98 85-98zm52 81c6-60-76-77-97-28-3 7-6 17-6 28h103" id="q"/><path d="M85-194c31 0 48 13 60 33l-1-100h32l1 261h-30c-2-10 0-23-3-31C134-8 116 4 85 4 32 4 16-35 15-94c0-66 23-100 70-100zm9 24c-40 0-46 34-46 75 0 40 6 74 45 74 42 0 51-32 51-76 0-42-9-74-50-73" id="r"/><path d="M24-231v-30h32v30H24zM24 0v-190h32V0H24" id="s"/><path d="M96-169c-40 0-48 33-48 73s9 75 48 75c24 0 41-14 43-38l32 2c-6 37-31 61-74 61-59 0-76-41-82-99-10-93 101-131 147-64 4 7 5 14 7 22l-32 3c-4-21-16-35-41-35" id="t"/><g id="c"><use transform="matrix(0.05,0,0,0.05,0,0)" xlink:href="#p"/><use transform="matrix(0.05,0,0,0.05,10,0)" xlink:href="#g"/><use transform="matrix(0.05,0,0,0.05,15.949999999999998,0)" xlink:href="#q"/><use transform="matrix(0.05,0,0,0.05,25.950000000000003,0)" xlink:href="#r"/><use transform="matrix(0.05,0,0,0.05,35.95,0)" xlink:href="#s"/><use transform="matrix(0.05,0,0,0.05,39.900000000000006,0)" xlink:href="#t"/><use transform="matrix(0.05,0,0,0.05,48.900000000000006,0)" xlink:href="#f"/><use transform="matrix(0.05,0,0,0.05,53.900000000000006,0)" xlink:href="#n"/><use transform="matrix(0.05,0,0,0.05,59.85,0)" xlink:href="#o"/></g><path d="M143 0L79-87 56-68V0H24v-261h32v163l83-92h37l-77 82L181 0h-38" id="u"/><path d="M16-82v-28h88v28H16" id="v"/><path d="M24 0v-261h32V0H24" id="w"/><g id="d"><use transform="matrix(0.05,0,0,0.05,0,0)" xlink:href="#j"/><use transform="matrix(0.05,0,0,0.05,9,0)" xlink:href="#t"/><use transform="matrix(0.05,0,0,0.05,18,0)" xlink:href="#s"/><use transform="matrix(0.05,0,0,0.05,21.95,0)" xlink:href="#u"/><use transform="matrix(0.05,0,0,0.05,30.950000000000003,0)" xlink:href="#s"/><use transform="matrix(0.05,0,0,0.05,34.9,0)" xlink:href="#f"/><use transform="matrix(0.05,0,0,0.05,39.9,0)" xlink:href="#v"/><use transform="matrix(0.05,0,0,0.05,45.85,0)" xlink:href="#w"/><use transform="matrix(0.05,0,0,0.05,49.800000000000004,0)" xlink:href="#q"/><use transform="matrix(0.05,0,0,0.05,59.800000000000004,0)" xlink:href="#h"/><use transform="matrix(0.05,0,0,0.05,69.80000000000001,0)" xlink:href="#g"/><use transform="matrix(0.05,0,0,0.05,75.75000000000001,0)" xlink:href="#i"/></g><g id="e"><use transform="matrix(0.05,0,0,0.05,0,0)" xlink:href="#p"/><use transform="matrix(0.05,0,0,0.05,10,0)" xlink:href="#s"/><use transform="matrix(0.05,0,0,0.05,13.949999999999998,0)" xlink:href="#p"/><use transform="matrix(0.05,0,0,0.05,23.95,0)" xlink:href="#q"/><use transform="matrix(0.05,0,0,0.05,33.95,0)" xlink:href="#w"/><use transform="matrix(0.05,0,0,0.05,37.900000000000006,0)" xlink:href="#s"/><use transform="matrix(0.05,0,0,0.05,41.85000000000001,0)" xlink:href="#i"/><use transform="matrix(0.05,0,0,0.05,51.85,0)" xlink:href="#q"/></g></defs></g></svg>